<mxfile host="Electron" modified="2023-10-30T09:02:42.470Z" agent="Mozilla/5.0 (Macintosh; Intel Mac OS X 10_15_7) AppleWebKit/537.36 (KHTML, like Gecko) draw.io/22.0.3 Chrome/114.0.5735.289 Electron/25.8.4 Safari/537.36" etag="qIMqXpfnlhJiJBK51ijc" version="22.0.3" type="device">
  <diagram name="第 1 页" id="ilDRJF-793l7u34D8x66">
    <mxGraphModel dx="2052" dy="1316" grid="1" gridSize="10" guides="1" tooltips="1" connect="1" arrows="1" fold="1" page="1" pageScale="1" pageWidth="827" pageHeight="1169" math="0" shadow="0">
      <root>
        <mxCell id="0" />
        <mxCell id="1" parent="0" />
        <mxCell id="BYhc7Ps8Rw60LZGLpF5L-1" value="" style="shape=image;verticalLabelPosition=bottom;labelBackgroundColor=default;verticalAlign=top;aspect=fixed;imageAspect=0;image=data:image/png,iVBORw0KGgoAAAANSUhEUgAABgwAAABCCAYAAACLkv24AAAMP2lDQ1BJQ0MgUHJvZmlsZQAASImVVwdYU8kWnltSIbTQpYTeBOkEkBJCCyC9CDZCEiCUGANBxV4WFVy7WMCGrooodkAsKKJYWAR7XyyoKOtiwa68SQFd95XvzffNnf/+c+Y/Z86dufcOAOonuWJxHqoBQL6oUBIfFsQYnZrGID0FVKAHyMAQeHJ5BWJWbGwUgGWw/Xt5dx0gsvaKo0zrn/3/tWjyBQU8AJBYiDP4Bbx8iA8BgFfyxJJCAIgy3mJyoViGYQXaEhggxAtlOEuBK2U4Q4H3yW0S49kQtwBAVuVyJVkAqHVAnlHEy4Iaan0QO4v4QhEA6gyI/fPzJ/IhTofYFtqIIZbpMzN+0Mn6m2bGkCaXmzWEFXORF3KwsECcx536f6bjf5f8POmgD2tYVbMl4fGyOcO83cydGCnDqhD3ijKiYyDWgviDkC+3hxilZkvDkxT2qBGvgA1zBnQhduZzgyMhNoI4VJQXHaXkMzKFoRyI4QpBpwgLOYkQ60O8UFAQkqC02SyZGK/0hdZlStgsJX+OK5H7lfm6L81NYin1X2cLOEp9TK04OzEFYirElkXC5GiI1SB2KshNiFTajCzOZkcP2kik8bL4LSGOF4jCghT6WFGmJDReaV+aXzA4X2xztpATrcQHCrMTwxX5wVp4XHn8cC5Yh0DEShrUERSMjhqcC18QHKKYO/ZMIEpKUOp8EBcGxSvG4lRxXqzSHjcX5IXJeHOI3QuKEpRj8eRCuCAV+nimuDA2UREnXpzDjYhVxIMvA1GADYIBA0hhzQATQQ4QtvfW98I7RU8o4AIJyAIC4KhkBkekyHtE8JoAisGfEAlAwdC4IHmvABRB/usQq7g6gkx5b5F8RC54AnE+iAR58F4qHyUa8pYMHkNG+A/vXFh5MN48WGX9/54fZL8zLMhEKRnpoEeG+qAlMYQYTAwnhhLtcEPcH/fFo+A1EFZXnIl7D87juz3hCaGT8JBwjdBFuDVBOFfyU5SjQBfUD1XmIuPHXODWUNMDD8L9oDpUxnVxQ+CIu0M/LDwAevaALFsZtywrjJ+0/zaDH56G0o7iTEEpepRAiu3PI9Xs1TyGVGS5/jE/ilgzhvLNHur52T/7h+zzYRv5syW2EDuItWKnsPPYMaweMLAmrAFrw47L8NDqeixfXYPe4uXx5EId4T/8DT5ZWSYLnGuce5y/KPoKBVNk72jAniieKhFmZRcyWPCLIGBwRDyn4QxXZ1c3AGTfF8Xr602c/LuB6LZ95+b9AYBf08DAwNHvXEQTAPu94PY/8p2zZcJPhwoA547wpJIiBYfLLgT4llCHO80AmAALYAvn4wo8gS8IBCEgAsSARJAKxsPos+E6l4DJYDqYA0pAGVgGVoP1YBPYCnaCPeAAqAfHwClwFlwEHeAauANXTzd4AfrAO/AZQRASQkPoiAFiilghDogrwkT8kRAkColHUpF0JAsRIVJkOjIPKUNWIOuRLUg1sh85gpxCziOdyC3kAdKDvEY+oRiqimqjxqg1OgJloiw0Ek1Ex6FZ6CS0GJ2PLkHXolXobrQOPYVeRK+hXegLtB8DmAqmi5lhjhgTY2MxWBqWiUmwmVgpVo5VYbVYI3zOV7AurBf7iBNxOs7AHeEKDseTcB4+CZ+JL8bX4zvxOrwFv4I/wPvwbwQawYjgQPAhcAijCVmEyYQSQjlhO+Ew4QzcS92Ed0QiUZdoQ/SCezGVmEOcRlxM3EDcSzxJ7CQ+IvaTSCQDkgPJjxRD4pIKSSWkdaTdpCbSZVI36QNZhWxKdiWHktPIIvJccjl5F/kE+TL5KfkzRYNiRfGhxFD4lKmUpZRtlEbKJUo35TNVk2pD9aMmUnOoc6hrqbXUM9S71DcqKirmKt4qcSpCldkqa1X2qZxTeaDyUVVL1V6VrTpWVaq6RHWH6knVW6pvaDSaNS2QlkYrpC2hVdNO0+7TPqjR1ZzUOGp8tVlqFWp1apfVXqpT1K3UWerj1YvVy9UPql9S79WgaFhrsDW4GjM1KjSOaNzQ6Neka7poxmjmay7W3KV5XvOZFknLWitEi681X2ur1mmtR3SMbkFn03n0efRt9DP0bm2ito02RztHu0x7j3a7dp+Olo67TrLOFJ0KneM6XbqYrrUuRzdPd6nuAd3rup/0jPVYegK9RXq1epf13usP0w/UF+iX6u/Vv6b/yYBhEGKQa7DcoN7gniFuaG8YZzjZcKPhGcPeYdrDfIfxhpUOOzDsthFqZG8UbzTNaKtRm1G/sYlxmLHYeJ3xaeNeE12TQJMck1UmJ0x6TOmm/qZC01WmTabPGToMFiOPsZbRwugzMzILN5OabTFrN/tsbmOeZD7XfK/5PQuqBdMi02KVRbNFn6Wp5SjL6ZY1lretKFZMq2yrNVatVu+tbaxTrBdY11s/s9G34dgU29TY3LWl2QbYTrKtsr1qR7Rj2uXabbDrsEftPeyz7SvsLzmgDp4OQocNDp3DCcO9h4uGVw2/4ajqyHIscqxxfOCk6xTlNNep3unlCMsRaSOWj2gd8c3ZwznPeZvzHRctlwiXuS6NLq9d7V15rhWuV91obqFus9wa3F65O7gL3De63/Sge4zyWODR7PHV08tT4lnr2eNl6ZXuVel1g6nNjGUuZp7zJngHec/yPub90cfTp9DngM9fvo6+ub67fJ+NtBkpGLlt5CM/cz+u3xa/Ln+Gf7r/Zv+uALMAbkBVwMNAi0B+4PbApyw7Vg5rN+tlkHOQJOhw0Hu2D3sG+2QwFhwWXBrcHqIVkhSyPuR+qHloVmhNaF+YR9i0sJPhhPDI8OXhNzjGHB6nmtMX4RUxI6IlUjUyIXJ95MMo+yhJVOModFTEqJWj7kZbRYui62NADCdmZcy9WJvYSbFH44hxsXEVcU/iXeKnx7cm0BMmJOxKeJcYlLg08U6SbZI0qTlZPXlscnXy+5TglBUpXaNHjJ4x+mKqYaowtSGNlJactj2tf0zImNVjusd6jC0Ze32czbgp486PNxyfN/74BPUJ3AkH0wnpKem70r9wY7hV3P4MTkZlRh+PzVvDe8EP5K/i9wj8BCsETzP9MldkPsvyy1qZ1ZMdkF2e3StkC9cLX+WE52zKeZ8bk7sjdyAvJW9vPjk/Pf+ISEuUK2qZaDJxysROsYO4RNw1yWfS6kl9kkjJ9gKkYFxBQ6E2/JFvk9pKf5E+KPIvqij6MDl58sEpmlNEU9qm2k9dNPVpcWjxb9PwabxpzdPNps+Z/mAGa8aWmcjMjJnNsyxmzZ/VPTts9s451Dm5c36f6zx3xdy381LmNc43nj97/qNfwn6pKVErkZTcWOC7YNNCfKFwYfsit0XrFn0r5ZdeKHMuKy/7spi3+MKvLr+u/XVgSeaS9qWeSzcuIy4TLbu+PGD5zhWaK4pXPFo5amXdKsaq0lVvV09Yfb7cvXzTGuoa6ZqutVFrG9ZZrlu27sv67PXXKoIq9lYaVS6qfL+Bv+HyxsCNtZuMN5Vt+rRZuPnmlrAtdVXWVeVbiVuLtj7Zlryt9Tfmb9XbDbeXbf+6Q7Sja2f8zpZqr+rqXUa7ltagNdKant1jd3fsCd7TUOtYu2Wv7t6yfWCfdN/z/en7rx+IPNB8kHmw9pDVocrD9MOldUjd1Lq++uz6robUhs4jEUeaG30bDx91OrrjmNmxiuM6x5eeoJ6Yf2Kgqbip/6T4ZO+prFOPmic03zk9+vTVlriW9jORZ86dDT17upXV2nTO79yx8z7nj1xgXqi/6Hmxrs2j7fDvHr8fbvdsr7vkdamhw7ujsXNk54nLAZdPXQm+cvYq5+rFa9HXOq8nXb95Y+yNrpv8m89u5d16dbvo9uc7s+8S7pbe07hXft/oftUfdn/s7fLsOv4g+EHbw4SHdx7xHr14XPD4S/f8J7Qn5U9Nn1Y/c312rCe0p+P5mOfdL8QvPveW/Kn5Z+VL25eH/gr8q61vdF/3K8mrgdeL3xi82fHW/W1zf2z//Xf57z6/L/1g8GHnR+bH1k8pn55+nvyF9GXtV7uvjd8iv90dyB8YEHMlXPmvAAYrmpkJwOsdANBSAaDD8xl1jOL8Jy+I4swqR+A/YcUZUV48AaiF/+9xvfDv5gYA+7bB4xfUVx8LQCwNgERvgLq5DdXBs5r8XCkrRHgO2BzzNSM/A/ybojhz/hD3zy2QqbqDn9t/AdYpfIJ77Dx3AAAAimVYSWZNTQAqAAAACAAEARoABQAAAAEAAAA+ARsABQAAAAEAAABGASgAAwAAAAEAAgAAh2kABAAAAAEAAABOAAAAAAAAAJAAAAABAAAAkAAAAAEAA5KGAAcAAAASAAAAeKACAAQAAAABAAAGDKADAAQAAAABAAAAQgAAAABBU0NJSQAAAFNjcmVlbnNob3S+LRcwAAAACXBIWXMAABYlAAAWJQFJUiTwAAAB1mlUWHRYTUw6Y29tLmFkb2JlLnhtcAAAAAAAPHg6eG1wbWV0YSB4bWxuczp4PSJhZG9iZTpuczptZXRhLyIgeDp4bXB0az0iWE1QIENvcmUgNi4wLjAiPgogICA8cmRmOlJERiB4bWxuczpyZGY9Imh0dHA6Ly93d3cudzMub3JnLzE5OTkvMDIvMjItcmRmLXN5bnRheC1ucyMiPgogICAgICA8cmRmOkRlc2NyaXB0aW9uIHJkZjphYm91dD0iIgogICAgICAgICAgICB4bWxuczpleGlmPSJodHRwOi8vbnMuYWRvYmUuY29tL2V4aWYvMS4wLyI+CiAgICAgICAgIDxleGlmOlBpeGVsWURpbWVuc2lvbj42NjwvZXhpZjpQaXhlbFlEaW1lbnNpb24+CiAgICAgICAgIDxleGlmOlBpeGVsWERpbWVuc2lvbj4xNTQ4PC9leGlmOlBpeGVsWERpbWVuc2lvbj4KICAgICAgICAgPGV4aWY6VXNlckNvbW1lbnQ+U2NyZWVuc2hvdDwvZXhpZjpVc2VyQ29tbWVudD4KICAgICAgPC9yZGY6RGVzY3JpcHRpb24+CiAgIDwvcmRmOlJERj4KPC94OnhtcG1ldGE+CowcXSEAAAAcaURPVAAAAAIAAAAAAAAAIQAAACgAAAAhAAAAIQAALquxIK20AAAud0lEQVR4AexdB3gURRt+CaRBSChJ6B2k9ya9IwhI70oHBWkqisiPICpNBERAKRHpCCJdeg1durRQAoROaCmkkfLPd3iXm7u93F1yt7mEb3zwps/su5vdmXm/kiFBBHCQEAgPvo5Dv3eU8rSJim2mIk+pFtqkxb/Up4dPcYvrc0VGgBFgBBgBRoARYAQYAUaAEWAEGAFGgBFgBBgBRoARYAQYAUZATQQyMGGgJtw8FiPACDACjAAjwAgwAowAI8AIMAKMACPACDACjAAjwAgwAowAI+CYCDBh4Jj3hWfFCDACjAAjwAgwAowAI8AIMAKMACPACDACjAAjwAgwAowAI8AIqIoAEwaqws2DMQKMACPACDACjAAjwAgwAowAI8AIMAKMACPACDACjAAjwAgwAo6JABMGjnlfeFaMACPACDACjAAjwAgwAowAI8AIMAKMACPACDACjAAjwAgwAoyAqggwYaAq3DwYI8AIMAKMACPACDACjAAjwAgwAowAI8AIMAKMACPACDACjAAj4JgIMGHgmPeFZ8UIMAKMACPACDACjAAjwAgwAowAI8AIMAKMACPACDACjAAjwAioigATBqrCzYMxAowAI8AIMAKMACPACDACjAAjwAgwAowAI8AIMAKMACPACDACjokAEwaOeV94VowAI8AIMAKMACPACDACjAAjwAgwAowAI8AIMAKMACPACDACjICqCDBhoCrcPBgjwAgwAowAI8AIMAKMACPACDACjAAjwAgwAowAI8AIMAKMACPgmAgwYeCY94VnxQgwAowAI8AIMAKMACPACDACjAAjwAgwAowAI8AIMAKMACPACKiKABMGqsLNgzECjAAjwAgwAowAI8AIMAKMACPACDACjAAjwAgwAowAI8AIMAKOiQATBo55X3hWjAAjwAgwAoxAmkXgzoN47D0ci8s34hAYFI/QsASEvUxAbBzQsaULvvjQNc1eG0+cEWAEbItAQGA8en36UtOpp0cGZHbPgNw+GVC6eEbUr5EJVcpltO2A3BsjkEoIvAhNwL6jsTh/JQ7Xb8Xj2Yt4hItHPyomAYXyOWHN3CypNDMelhFgBBgBRoARsB8Cr16+xI0d23QDeJcqDe8yZXVpjrxGoEGXcM2awM0lAzzEksA7hxOKF3JC1fIZ0aBmJmTJnEFVqJgwUBVuHowRYAQYAUaAEUi/CMTEAF9MjsTyDSJiInR/zwU/f+NuopSzGQFG4E1D4MS5OLzbJ9zkZdcTpMF3o9xQtgQTByZB4gKHR8DvjxiMnhJpcp7eOTLgyh5Pk+VcwAgwAowAI8AIpFUEQu8EYXnT+rrpe+TOg5479yOjKwuR6UAREe/KIfpJKe6RJQNm/M8dHVo4S/n2TKhKGES/iMOzi4kLJeesGeFdwX6HBjEhcQi7E4PwO68QFx0v4eju64w8tVmKQwKFE4wAI8AIMAKMQAoQmOkXje/nRCXZgyMQBq8iIxBy86Y0T3dvb2TxzSXlUSImLAy0yNUPmUW9zKI+B0YgtRBIT8+wOcKAMC4mpKsOr8uKTMwZaB65wA0vEH73ldnHL18DD+Qsb7+9ltkJcAUNAsdOx6J1/9daNKYgcQjCICEBTwKuAPGJ++ZM7u7IVqSo0bTj42LxLCBAynfOkgVehQpLeY6YCNy5HZHPnklTK9H6Pbh4eEh5nEibCNCzedZvIeJjY81eQNluPeGeI4fZelzBvgiEBN1G2N07ukGy5sufJt4luglzxCIE9n/9FS79sVJXt/bosajUb6AunZxIeloP0/UnRRho8Tm1JatGK1GbtuevqoTBzc0hODg88UWQObczOh8tafPre3A4HMfGPUDozWiTfftWy4yWa40XPyYbqFQQLxZqZ25fwq3ge3gY8hQumZyR2dUNebP54u1iFeDu4qbSTHiY9IhAZEwUjt84j/svgvEyOhKv4l7BJ2sOFPHJjyqFy8Apg7oqTtZi/EosAK8+vCXm/xj3nj3C3eePEBYVgfw5cqGIdz4UzJkXhb3zwtOdF/zWYptW6qf1ZzgkIgwX7l3HPfHsPgl7jsehzxD5Khp5svmgYI48KOSdRzzD+ZDTI1tauSW6eT4Mjke55mG6tDZChyBVy2dCHmFixCtrBlSrkBEtG6onGaGdh/7v1c0bsHvUSP0sFG/ZGs1nzZHyKHFhxVIcnPi1lF+u+/uoP+E7Kc+aRFx0NO6dOIYXN28gIjhYc3Dh6ukpNkdFxL9CmsMZkrzhkP4QSBAHcZHPnkoX5pY9O5wyZpLyzCVS+xk2Nz9ryh89ScDCVdGIFopJ9B65IcyYnb8s7JcZhB++ckffzi4GuW9mckubG3h6IVEIyxQK1b7KjbIDmdw0hY9a+XU6hoFMbxmGxrUzIZe3E3xyZoCP+FYOfj91JS3D7t/DskZ1pGkSCTDw9EUpjxJPrlzGmrYtpXzPAgXx/u6DUp61idioKNyn7+OtQN33kQ7yPfLk1fwjQoJMWaQkkJSroSBAl43bUtxvSubEbW2HQHRoKPyqV7Cow45rNiBXxUoW1eVK9kPgwISxuLhqhW6AMl17oOHESbo0R9IHAmH37mJZ47rSxfQ9cgruOXNKedYk0tN6mK77hwXRiIhMQPDTBNx7FA//E8bEZ9tmzvCbltkamJJdN90RBsfHP8CVpfJGTAkdRyMMiChYemgDVh77G3QgphQyOmVEw1LV8UmL3vBKAweiUeIQbN3JXVhyaKPRNU3u/AnqvlVF6TI5zw4IhEW9xKwdS7Hn0nHExRtvwmlIIqO61miBvvXbC+LAyQ6zSH6X5+9cxcbTe5Kcv37v7ao0xqBGXZDVjbWI9HFJy/G0/AzvvngU+y6fwL93r+L5y1CLbkPj0jXxcdPu8PVM/gLKooFsWGnnwVj0GCFLUA7t7YovB7vCzdWxyMjUWlyGCumpf+bMQsD6dWaRL9KkGap+NBS+FSqarcsV0g4C944dwcbePaQJt5y7AEWaNpfyzCVS6xk2Ny9blStpHdDhKtt4f40wEwa2etLs3w/5LSjeQP72k5mt+ZMyw1cQBY4UUpMwoAP8f34W38eNf5mFJHvxEiDivkSrNnDLbr10OBMGZiFO0xWYMEh7t48Jg7R3z5I744PfjMOFlct0zcu/3xv1xn2jS1sbSe/rYfIL2PuzCCNBmocnvVTRuk1XhMHjkxHY1jnQomfMkQgDkjgduXIKrj8KsmjudLA7s8dolM1X3KL6aleig73Vx7Zh9fG/EROrrC49of3HaFLmbbWn9kaOd+XBTYxcMUVoFERYdP1FfQtonq8cWbwsqm/PSnS4+sH80QiJNG3b2NT4RLANa9oDHatbdwhjqj/OTz0E0vIzTKj1XvgVAh8natdZg2S3mu9qiANr2qRW3dmLozFxdiLhTXYWL+3KqnFgmlpzMjWu6otLIRRw9reFODLNemmpgnXro8Wc+SCzEBxsj4CStNOAUxfsZpri7pFD2NT3felCWvz8K4o2byHlmUuo/gybm5Adyr+eEYV5yxK1hQvld8KpzVntMFLa63LvgNsIPmusYRD1VJZEYw2D1L+3SuTX9qUeqCYcGDpaSBXCgLTr/Rbg6A+TrYaDvo+t/ZZa3Y4JA8sgM8TpvcXLkb+2LB1sWU/q1iITJcub1DMalLRXyPGqfmANA300Ui/OhEHqYa/2yOEPHmBpw1rSsOTLILnm7N6E9fD2A6/w/kj5LO/CzqzI7WN/Id90RRhsbXsDT87Li+fSvXMid60scPfNBKdMiVIcLl4ZkbWgi/SgpkaCpL0HLh6Paw9vWzU8mSpa8dE05PZyHDXjZ+EhWHpkEzac2mNSil17kUwYaJGw72+wMHnSbd5nJokbU6MX8cmH3wZ8j0zi0D01w73njzXzT8kcxrX9CM3LyerVKemP26qLQFp/hgmtlBAG1H5Ik+7o/va7FHXoMPTrSKzenOjsmCQo1893TC0fVReX4jDk8ORvcW7Jb8m+f/2On4FbtuzJbs8NTSPw4mYgVrZoLFXof+IsXL3sYxaMCQMJ6iQTm3a/Qr/P5Q1S8GkvOLj1xCSvyd6FO7rfxMNjiQdiTBjYG3Hz/a/aFINh4+X9qVqSgeZnJ9dQnTAQ38dDkybi/NLF8kQsTDFhYCFQyay2sEpZ6YD93V8WoXDjpsnsLfWbkW+DX8vIApdMGKT+faEZMGHgGPdBrVlsH/ohAnft0A1XeeBg1Bo1Wpe2JqLqns6aidmwLpnuLNtM1lTctdwDlcva/6xOVcLg7t4wyYeBVzFXtNpYzCZQxkXFY3npS1JfNb/Jg1K9HNucw5zdK/HH8W3SvCmRP3suNCpdQ+PD4NydAJy8aWw7skCO3FgxeBoyiP9SO0zZsghbzx2weBpMGFgMVYoqmjqoLCe0U6oVKQfadR+6ekpRu6VjtWYY+U6vFI2f0samCAMyyVU8VyGUEP98PXNofBrQ34kS8UaaBss/mqr5m0rpfLi9+gik9WeYEDO8Bh/xzBb3LSj8Fngjl6e38FPjjgfCLwdpmZ0I/FcR5Hm9x6F8/rcUyxwlk9Qlt+5N1Crr2NJZY3LBUeanPw81F5cnfpqBk/Nm6w+viZNd6DxVqyN35arwKVMW0aEhCL54AQ/Pnsajs2ek+kwYSHDYNMGEgU3htGlnR4Wj2DYGjmID9nkiZ7bUX/fa9EJt2BkTBjYE00Zd+f0Rg9FTEgkD0r67dcjTRr3bthu1CQNz38c8VarBu3QZxAip8CeXL+Hp5YsIOnRQd9FMGOigsEuECQO7wMqdKiBwdPpUYaYmUVuoXI9eyT5AVuiesxwMASILiDTQBtoTkS+DTG7W+2tVc0+nna/av6+E8mie6iHSsMtmCp+8KvgEVJUwkK7QxomQwGhsaHJN6rX7udJw8bQ/6yINakWCTBG1njnEqMWABp3Qu25bKf9c0BUMXfa9lEeJbzsMQ0NBLKR2qPf9B1ZNgQkDq+BKVuUj185g9JoZRm3n9hqHCgXkg8dlRzZjwb41RnU3jPg5VZ2vGhIGbSo3Qh/xt2HKrvuBKycxceM8I40KMrO0ZKD1pkCMAOEMVRFID88wAfb56ukIjQoH+SVoIPzQJKUZdvvJfYz7azZuCsf3+oEI4pWDf9DPcri4IWEwoJsLpox2TDM6ai0uH184jz87vmd0r3zLV0QbvyUmpdjD79/H8VnTdbacmTAwgtBmGUwY2AxKm3d08VocGnSRTRKqpYJt84tRqUMmDFQC2ophFq2OwZdTEwmDYoWccHyDY5rWUpMwMPV9zFWpMlov/B2unsqmUUNu38LhKd/h1t7dYMLAigcxGVWZMEgGaNyEEWAEzCIQFx2N32pVkTSYmv04GyVaG++ZzHWm1p7O3DzsXe5dWSYMyOkxOT+2d0g3hMF9/3Ds6nVLwqv3TSFB7cBh7u5VGjv/+lOsWrgsZvX8Uj9LF99y9gCmbl2kS1OENBFWDZku5aVGQokwICn2j5p0Q1RMNEatlg+6mDCw/10ylGqmEQc37oYetVopDk7kAh3Q6ocO1Zrik3d662epGg8OfYZuv4xCx2rN0VPM2yuz+Q0WSWh/tmqa0Tz3jP5No7FjVMAZDotAeniGkwMumXfrPPcTI+Jr35jfU91MWFLXY0gYDBSEweQ3mDAg1fd1ndtptAb0cStQp57wSfArnDObN9d0Y/tW7BjxMZgw0EfQtnEmDGyLpy17Y8LAejSZMLAeM3u3YMLAGGFT30ciAN6h76N7ZuNGBjlB/gfw7NpVVOo30KDEfNLQNj+16LJxG7xLlTbf+A2qwYTBG3Sz+VIZAZURODjhf7iwarluVNIoa7/qT13a0sibQhgUrhuK8JcJOliYMNBBYVnk9rZQ7B8SpKucObczOh8tqUs7YuS9WR+DnLpqA5lO2fLJPHi4KS+SiCwg0sAwrPl4hjBt4WOYrWpanzCoVqQsPmzUFaXyFNHM4fiN8+mCMDh27BgWLUokbLp164amTR3TjuMT4bug/ezh0jOQlJR9fEK88BUwSphFCZbaZHHNjO2j5kt5aicSkGC12S0iDAxNu/zSZzyIxOKQNhBIT89wchAnjR/S/NEPC/tN1L1X9fMdJc6EgXwn7hzyx+b+svZdtsJF0HXTdmR0dZUrJ5GKCH6MzN7iG28Pw+3CfrRd+k3ielJUZIf5MmGQojti18bpljCg/Z6drCqpShjY8TqkB0utcaRBbZdgwsAYS5Pfx807kNHFxbiBjXNUJwzs8O0ygsQOYzBhYISy5Rl2uB+WD841TSLA98UkNGoX3Dt2BBt795CG7bX/KDzy5JHyzCWYMDCHUMrK7aJhEBMWh/sHZBVipWmS4+G89TyUikzmPQ+IwqPjsgM0qhx8OgKBG19I7Wp+k1dK6yey5HNGgSbmpZX129gybmhqhfquV7IqJnUaqTjM5fs3MGjxBMWyYU17okvNFoplamU2nNwHtUtUwsAGnUEOc/VDeiEM/Pz8MGDAAN2lTZo0CWPGjNGlHSmy8fReTN+2WJrSZy37ol0V2bGjtoIpk0RUvmTQZBT1ya+tmiZ+l4uD1vkGJpaGN3sfnWu8kybmz5ME3vRneO/l4xj/1xzpUfji3X4gs1yOGpgwkO/MrlEjcG3zRimzzldfo2LvflKeLRMvHz/CTT0nYpmElGapDp10Q5CPhIurV2hsQT8PvK5RBfYsUBDZihQFaT6U7tQVLh6WrctIsvPWvj24I6Q8Q4JuI/zhA804JCHkU668sDtdFvlr14FHbusW/tQJkSRB/gfx4NQ/eCn6Db17By9u3dT0754zJ9yy54Bv2fIoWL+h+NfApOkKTYP//kd9Bu7crp+liZMJjjOLZGK8xojP4OalbA6DGuV4qxTyVk+eOUh2emx0C0xmpAfCIDYyHvf2h4t/YQg+E4GX91+Jv7t4kGCTb5XMyFHODTnLuSNvXfF3ZwMSwV6EQUJcAoJ2hoE0usPvxCAs6PU/unlZC7ogcy5neOR3Rh6xr6O9nbt3JpP3NamCyOBY3NkTBvJ790Ls+WgcCtlLucG7gjtylHWHb1WBW1nr7RwnNa49y5gwMEZX6ftYd+zXqNDLft9H/VnYkzCIeBKsMZd0e/9ePL0agNA7rwUac5YsBd9yFeBTtpzGd5G38F2U3BD+4AEu//kHnl2/Jvq/rfk+vhJ+Huj7SN/cLLlya7QlCjVoDJ/y5eGU0fTfY0JcHC6t/QMJQivSMByc+LWUVbJtB+SqWEnK00+4emVLlkkR/T7sGbeH02Pq89G5s2ItdBDPA28g7N5dhN2/i8inTzWXQmssuh8F6tRFwXoNQCYpHSHExcTg8trV0lQKN25m1WFtQnw8Lv6xEhC/2lBAaAl5FSqsTRr9kkkxWouaC9mKFku5xo8gB+79cxxBB/bh7tHDmnUq3RetDzHyH0Y+Ugo2aGSRVpO5Oduz/FXES6M9hXa8bEWLJ3tNqu0jNX7pnUWkpH5oNuNnlGjVRj/LbJwJA7MQpaiCXQiDxycjsK1zoNmJJUcL4MKCJzg1+aHZvs1V8K0mnESsLWqumt3K/zq5GzN3LJH6H/veh2hRvq6URwmS/u4y51M8Cn394TGskJQZI8O69kq/Eh9LZxOLESYM7IW66X6VzAuZ8kfwMOSJRrsgLj5OscMhTbqj+9vvKpY5auaui0cwccMv0vQ+qN0Ggxp1kfI44bgIvOnP8Lbz/pi0eYF0g75uNxjNytaW8hwpwYRB4t2ICQ/HoqrlEjP+i/U5fFJoC3gb5dsqI+jgfmwZ2EfqbkjALcSEhYEOaOgAI6lAm6iWcxcgf606JqvRQcWxGdNwddN6k3W0BdRfk6kzULSZZWQtqSZfWbcWj/89p+3C7C+NUeuz0SjTrUeShyJKEq1mOzdRgUiYxpOnmyhNOpsJg6Tx0S9N04SBkIonQaZ/vnuIqKfGB3H610nxAs08UWdaPrhmS5nvNXsQBre3h+L0tEcIvRltOG2TaRLKaryokMlyw4LYCHHwtPAJzs56bFikmK400hcVhvogQ0YbsCyKI9gukwkDGUulQyKqQQ4v6cBbjWAPwuBVZATO+i3APz/PsugSqg8biaqDhyb53TLsiIjvU7/Oxb/L5TMEw3r6ac13fc58QeAbnzFQPTqIXFhZPrTTb29NnO4f3UdHDbYkDEhQ4tQvP+PGjm2SHXZz106CDnWF8AgJaqRmULrv1YeOBD2XloYHp09iffdEoRRq13rREg0xYqoPen6Pz/zBVLEuv0zXHmg4cZIubW3k0dkz8P9ugkXrSdL+JVOhOUqUtHYY1eo/vXoFf7RRFhAu3rI1ms+ao9pcbDnQH++1wNOAK7ouy3bviQYTjP226iooRJgwUADFhllMGNgQTGu6IulvkqDVD+SLgHwSGIZlhzdhwf61htm6dE6PbKDDYEcNTBiof2e6zP1UMi/k7uKGnZ8vVJzI0KXf4dydAMUyynynfB38772PTJY7YsEve1dj5dGt0tQ+bdEb7as2lfI44bgIvOnP8JQti7D13AHpBv024DuUyGX5AYzUWIVE24Evcfhk4sHYm+zD4MHJE1jfUyYoi7VohXd+mmvXO6FEGPQ9ehpbBvSySKKLJtfw28ko06W74jzJSeXGXt2t2hxTR+U/EFqIn48xa4rJcOOgOAkTmW+91x6Np/xg8vCFCYOvJeTKdX8f9Sd8J+U5WkKJMDi6PitKFHZytKlK8yFp/GP/u4+rq59L+eYSJEjVcF4B+FRWNk1qrj2V25owMDT5askcqI5zFif0uFDGoupRz2Kxp+9tPDmf6BjYkoa5386CerMKCO0G09LTlvRj7zo/LozG5HlRumHedKfHSoeManwfdTdARGxNGEQ+e4atg/padDipP498Nd5G0x9/QhZf4/2/fj2KE/G/rlsHPBdaBdYGetfTO18pKB0cK9WzJO9NIgzI6fbfgwdYAotinU5rN8K3QupqG+z54lMEbPxLNz/Shnh/l9h7WGgC89D33+D80sW69kRO9T9xDk6ZTL+T1SAMLq9bg31ffaGbl6WRRpOmoXRHee1uaVt710uvhIGhHwPNM7j7oFVwvqmEwcyv3fFBexersEpOZbsQBqRy+3eHQLPzSY6GQcDyZzg27r7Zvs1VyN84K5r4pd7Bi9Ihrf/YZUbTJunvznM+kfJdMjkbOcM88NVSOFn4cpc6UyHBhIEKIBsM0XByH+hrDJDtfrLhbxj2XDqGCesTD7CIWIiMSdzUUP2SwhfFImE7PS2FQYvH4/J9+R308wdjUalgKdUvIyIiAuvWrbP5uO7u7ujUKVGqY8OGDQgTmwlbh3bt2iFr1qy27tZsf2/yM3z61iWMWDFZwoje+9tHLTCpySVVTqVEhRbCXMWjeN3ow/q4YvwIN13akSL2XlyS9J//t/I7t8m0GSB1fnuGoIPGGgZ0kG6JNoB2XqYIg5DbN7GieSNtNaNfUrNPEJpqplTNyTFl7dFjjdrpZ5giDGgTmqPEW3DJ4qExf6Q18aDfluJVP/oYNT/53DBbk1YicRQrWpBZoVdf1B0r318LmmmqsIaBpUgBD4PjUa65/F1b92sWNKhp+jDC8t7tV5PIgoAVzxQHoL2PZ2EXvLgWbVLzoPOxUsk+BLclYRASGI0NTZQPJ8k8kLswQ0TkSMj1aJ3pIO1FW0oYxMUkYEvr6xo8tG31f7OVcAWZsH1+OUpjykm/jOJkzqnVhqIOrWkw8ptILN/w2rQSzblsiYw4sMYy029UX81AJtqWNaojDUnv34GnL0p5lHhy5TLWtG0p5Vty2HNhxVIYmrppMvVHlGzXUerLnglbEgZk2mVN+1YmD/KzFy8BN08vPAm4rEi2k4kiOjzOkDFp7aIdIz7Gje1bjWChQ3rvUmXgktVTmFy5r3EETVoc+iEpwiA2MhKL61RTnJt+H5bE6Vq7b91lSdVUqWNLDYOkCAP6O8hWqDCiQkKEmaLX5h8NL5j+rnru3P/aR5VhoUpppTVjpz8FkWGB2STC0q96Rem5IZObZHozqUAmII/+IO9xlOonV8Pg2tbN2PXpMKUuNaaIyFxm5JNgnZlLw4rv/rIIhRs3NcxO9XR6JQyu/PUn9o4ZJeHb59AJZPbxlfKSSth7T5fU2GqW1WwXhhu3E/fZowa64ssh9t9n24UwIODIZqdhuLUlBIe/uKfLTg5hoGtsEDGUgLFl3wZD2STZ7qdheBr+QteXl7sHtnwqm1ChQkNigWzQP30ZAv8AWd1v7dCZyO3lrevPkSJMGKh7N56J56PtrKHSoE3KvI0J7T+W8l5GR2ocI+sTBORD49tNv0qkgSM4PpYmbiZB19VqxmCJMKHD1l1f+KUKqXbx4kWUK2dsmsTMZVhUnECOm/4Lnp6ediEMTp48iapVq2qHUeX3TX2G6W9xzYkdWOy/Xnp+CXRH98ER/DQBpZuGSs/HzHFC8qGD/SUfpEEtTJAtU8MNS+FGTRVVsQOFTwBSO9cPJVq3BR2Amwq0+KVFsH54b/FykyYB9OulJK60+dPvj2wbV/lwiEbtOkfx4sjg5CQ2TWRP9l/8M2eWxuauKcKAJOlog6wfaFPc6PupyFuthu6wgzaRN3fvFBuAz6WNJLWjgwQ6UDAV9AkD8qdApn+yFysOt2zZpSYkEfnv8qXCNMMcozEGnPxXHJxYTnKmVafH9n6GJcBTKREnthK5qoZIoxMJSWSkowaSkt/a9obR9Mr0zylM6PhKJociHsXi+Pj7CNohvzuLtsuGejPzG/VhSYYtCYN/vn+IS4ueSMOW+8gHZQcIPyI5ZdKGiAO69itLnyFwwwuLNQwu+T0VZpseSGNQovaUfCAcMrpmeF0mljtPL0bi0Kd3jcgFqluiq/yOMOowlTJomdawazhIW0YbOrZ0xvxJydci0fZjj9+o58+wuX8vqWt34TOmtd9SKY8SZKt9+zBZA9mrYGGzpjH2jR2tsb+v32Ebv2UoULeefpZd4ztHDhXk8y1pjHdm/wLP/AWkPEsS5373w+HJ3xpVbfjdFJQUhH1G1//eV+JhCL50Ebu/+MSIXKDvKH3zTAW6L7+9XUUq1nx/hUS05vsrvuX6gepf/3sLzi5epPGhkBRhoN/OMM5Ojw0RSUzrEwZk0obWhPnero2s+fIbSdiTeZxjP07FvRPHEjsQsRojPkW1IcOlPDUT8bHi0L+GfOhfecCHqCU0Qs0FJeGHjn+sR65KlZNsSj4ziGQzDAcnjpPWzckhDIgoW96svs5/hHYM8tFVf/xE4VuhiDZLnFVG4ozffCMTYrRO7rFjHzK52f8gVjcZCyLplTB4eOYU/uomk8WWklZa2N6E9TBda5ePX2LvkVjtZaNx7UxYMzeLLm2viN0IA6UJ39wcgoPD7+iKbHmon9YIg+Y/DJQOZYv6FsCSgbKdNkPpbzq43TBiNmbtWGZsqqK/MFWRu5AOW0eKMGGg7t0IevoAPX+V1fDIBwH5ItAPk7csxN/nElW+3i5WET90G4UOP49AcGiiZFxGp4zYP+Z3/aYOHf9RmPvaYGDuq2P15hjZ/INUmTcTBtbDnt6f4asPb0km6Z4I8vjBC+Hk9elDI6KA0KtdojImdx4pCC95Q2g9svZrMXF2FGYvjpYG2LrYAzUrJS0xJzVIRwnyI0CH9/qhy8ZtKXfgpt+hQjwpwoCciNUXdkFdBbmoFMj+8rnFfsJxWk0j52lK5nzIL0GTH2aadBRHvg7WdmwtbdxoM912yUql4TV5ByaMFQc2BQVR0BnuOXKYrKctuLlnF7YNkYmbeuO+Qfn3e2urmP1Nq4SB2QtLJxWqtgnD7buJQkgeWTLg0q6syOz+30GyA12ncDmGbZ0CNc6N9afVfEUR5KltYlMnDpTPzX5sZLu/xZoiyFXdRBv9zg3itiQMtne5iUf/JEoqF2ufDXVnmCcyiAh5eDRcc+BvMD0pGfkkFusbXhWkX+L9JQfKzVcUFg6UlclmEkjbP+SOxom0tjPSZuh0uKRGE0Gb5yi/u/xj0X14IoY0r/8Nc8PIfo5Letkbu60f9oOhP50u67ciJU6A7T1nU/1HPHkiNO8aSMQ1HeTTd44OjpUCHVRuHz5YWiOQtHmv/UfE99lLqYlGS3D3559IZT227zVrB58OZ4P8D2ic0CbHZj4TBhLkUoJ8LZ31WwiyuU6mpcyZ8SFhinWd20lamHTf+wmzkTpSSRpBnYShWSHSWOnjf0InBGJqFobEHz331pgzMuyX1n8XV63QZSeHMCDfCGTySD+8LXxcEQlCAjJKQYn4IE1V0lh1pJBeCQNyFL6qZRMJ6tYLfwf5+uAgI/DF5Ej8tkYm2/as9EDF0vbdazNhIN8H1VINJ8smYyoWKIk5vf6nG19J+psOc+lQd96e1Vh1bKuuLkXm9hqHCgXekvIcJcGEgbp3gg4j+/uNkwYd2LATetVpq8u7cPcaBi+ZqEsTKfDXsJ+Qw8MLfReNxfVHQboyiiiZy5IqOEji8v0bGLR4gjQb0i7YNHIusri6S/lqJZgwsB7p9P4MKzm9V0KJ/i57122LvvXaKxU7RF7MK2DOkmhMmiubMiMbzf5rs8LF2SGmqfok1nVtD5Io0w+9/Y9bZKdYv421cVOEAZklaioO95MTSAJtdatmkvo2SWB13bzDJPmgHSdw53YjCVRLJNC07S353SKkYYMOHdRVJSKjhXDwaGlgwsBSpFKn3rL1Mfhkomzbvk61TJglbLcWKaB8AJA6MwUMBaNoHjW/yYNSvXImOSWSzt/c+gaeX0l8j+ZrmBVNF1svCGQrwoDIj6XFLkjzrv9TARR5z0vKS0lCyXRT603FkLN80uu18HuvsK5ugDR01TG5UW6QY2lab9nzCkPHRyL8pWCF9MI/m7I63LOrNz27R8lJKvkx0A+9Dx5Dlly59bPSRNzwkJMm3WndJviWq5Dk/JVMP5FUNx1sKoVTv8zB8VnTdUX0De514Kguba8IEwa2RVZJmjq1yTJaq9KaVT+0W77GSHBEvzw2KgqLa1eViLIawz9BtY9H6FezKm74t2QtYUBOqFc0ayCNael60JA0oU4+unjdSFNE6lzlRHolDCKeBOP3OtUlNGm/QvsWDjICV27EoW6ncCkzby4nzJnojvo1ZK1PqVIKE0wYpBDA5Dav970s7VytSFnM7PGlrrtJmxdg23l/Xbp+yWr4vtPrlzA5cyWnrvpherfPUbNY0osT/fpqxpkwUBNtIakWdAVDl30vDfpx0+7oVvNdTR75Nug69zM8Cn2qqzOqZV+0FeauKIxcMQWnbl3UlVGENAzo8NKRQ2hkOLqI63oZHSFNc3SrAWhdSV5ASBXsnHj+/DlmzJhh81EyZ86MMWPG6PqdPn06QoStTFuH4cOHw8fHx9bdJtlfen+GLSUMfuo5BlUKW+Y0MklAbVRIC5W1WwVDIEKYOAAJDIrHhatxePJMPgwhCeB1v2RB1fKO/c6wESyK3ax8p5F0wE6VPrpwDU7OygzKy0cPha3bRDOFhp1mENolZMPfXDBFGJCdXK9Chc01VywnVd9NfXpKZdbYeF3bobUkUVd//Lco10NeA0mdW5k4OfcnnJidSIZYa0NZbcJAaXOutjkOKyFO1eqxcUDvzyKw48Drd4/+ZCqXzYiiBZ2QL7cTSN+AiMoebZUl0/Xb2Su+rXMgHp9MXINo7OtvLCYkG82PeHdvGPb0v62rqPEB8K94/1upSGEzwkCQGEuLy2vBWt/nxVs9zGv+6C4iiQhpCqwoc0mqUXagN6p9Zdmh8ampj3Dh12Bd+8LveqHB3AK6tJqRiMgEzFgUDTI/RCR64J140PdSXzNGO58fx7qjd6fUe0a180jN31WCgDZ03Pvhv1eR0SVt4UKaAgsqlZagtMRXj7bB0elTcWZhojnipBw/n54/D8dmTNM21dhiH3hKEHp29l/IhIEOcptE6KB9QcVSUl8t5y1EkSbNpDxVE+LFtbRhbeH/4oFuWNLSJG1NU+HW3l3C4fNAqbj737s1JiSlTCsSKSUM/vl5lsa0pv6QfYX2hiXaqtFi/e1Xo5J+U3TdtB05S8r3SqqgciK9EgZknmp+eXl/U2fMOFTs019lhNPGcD8Jbf5vhVa/YaD1b6liGVEonxOcBXdAAnujPnQT53eGNa1PM2FgPWYpbhEvxHYaTOot9UOH/XToT8FQ+pskpEn62yvza5u8m87sww9//ya1J9vz9Uqqa2dcmkASibRAGPj7+2Pbtm1JXAVw9OhR7N+/X1enevXqaNq0qS6tFKlTpw5atWqlVGS3vBOB/+KzVYmLShpoWLOe6FKjhWbM3w9tgN+BdbrxyZTVb8KklTaM/fMnHAyQJX92fr4Q5BDZUUO8WOwMFyTJuTuyxFnj0jXxTYehjjptnpcJBNL7M2wpYUDwFM9VUEMmZ/vv/W8CMlWy/9r+CoPGJB6GGQ5aTRAE7zZyRp/OLvD0sPKUy7CzNJ5e2qCWtPky5TRSe5mb+32AO4cThQS0+fq/vfYdgUfevPpZRnElwoDU5RsIU0TJDaQiThs5/TDw7CWTpoj061HcUEWc7DSTvWZbBUMHd6RO3/fIKYu7V5sweH7jOla9K68dOq7ZgFwV5c2qxRfwhlT0PxGLJeticOhkrBFJqYWATKCRKbTUCivLXZLM61Qa6YuKI3wtms6r8HisLC8foHf0f8ukaR5TndqKMKD+1ze+htCb0bqhyJQsaQC4+4jdaArDi6tR2PjOdamXJE03STWB+/7h2NXrli7XlmZudZ1aGLn7MB6VWoaZrE0b+XfqO6Ov+DY6mlaMyUnbscDw+0hDDQm4ZccR7dP1s2sBWN36HalzMkVEpvcsCYam/pLSGrix42/sGD5E6rbW518KjYSPpDxbJ5gwsDWigKHD7SbTZqBk2w62H8iKHsmHFR24awOtWfufOGdSwp6cCtPaSxvIcXfnv7Zok8n6TSlhQH5Jrm9LnEOeKtXQftWfFs/lz05tQWamtMHRpNzJP0PAhsTzG+086ZcEZfLVrKWflWT82bWrGt8mSVZKRiH5HEuOcNK8koWl0aoPG4nqQ0dKeZxIRICEEeYui8Ye4c9ASTBBW/PuMU+4af1AaTOT8cuEQTJAs0UTQw2D0nmLYkHfbzT2qzvP/VSyIf9Vm0FoWaGebliyz0522vWD1lyRfp6jxNMCYTBx4kSMHz/e5pANGjQI8+fPt3m/SXV4VmgYDDPQMOhTtx36N+go7KQHCyn8T6Xmq4ZMR/7suXR5X/05y8ip9j6hYZDJgTUMDDVy6GLyZPPB8g+nggg3DmkLgfT+DAeHPceZ25f/uykJeCx8hpDfhoCHtxD4+I7RzfJy98CvfSdIf6dGlVTISIowILKgaT1ndGvjjPxC2vdND0oaBkkdiNiTMCDzPKSWndxAzhzJqaN+oM2kfqCNjKWBJLZIcstcIPXyG9u2IuzBPeFc8x5CRfrFrZvmmr2WvDwtS0Yn1UhtwiAi+DF+r1tDmpIltqilBm9gIjQ8ATsPxuLA8Vis2iTbcNXCkZqEQfTzOKyuon2va2cEjfPfxBQkQkE/XyneeGEhFGj6WlhIqVwpz5aEgf/Iuwjc+MJomNJ9cqJAM094V3Q3uj6jyiYy7uwKxd5BQUalpFmhH/T9G+jnK8W7nS4N1+zqa7YlRRh458ggvosuaN3EGfSd5AAoahicD0hVO+7JuS9KPnSon5R8H/sdPwO3bNmNpqNENFMlOqgt17MX6HCUHO/aWuOACQOjW6GYQf4Jbu7aIQ6c/9U4A6d1S+idIMmHk2JDkdnw28ko06W7qWJV8pWeL1Oaj7Teo+dCP9Qd+zUq9Oqnn2V1PKWEgdJ7JSV/ixX7DkCdL/9n9XWkhQb7vvoCl9etsflUKw8cjFqjRlvVr6KGgcCd8OegjABpM+49GgsSpNksTB+aIg1sRRj8HwAA//8EDPw4AAAr70lEQVTtnQdcFMcXx38WUBHsCoi9i72Lxl5i7F2x96gxMfbENKPGGhONsZdYY6+x927sDXuvWBBEQVAp/32X/x07e3vHHdzhHrzJx+zM7NTvLre78968lyxaCkigcPefYBz66qGhNxcPJ7Q5XtiQjk/k/vbXOND/gaEJW7ZtaNSGkZrjuyEyKtLQYo6M7ljR/1csOrwBCw6tN+QX9yqAWd1+MqQpsvrEDkzfs1zI+7PL9yiV0zYshYZtkDhx+yKGrpwstDSqxReo411ZyPuYidGjR+Onn0TOthhPnz59MGfOHFs0ZXEb1/zvovfCH4XyLcrVxeAGXdFv0c/we3zLcK5n9ZboVq2FIU2RISsm4eSdS0Le4e+WCmktJeYfXIvFRzYJQ0qbygVLP5+ArG4ZhXxOOAaBpHYPy6/K2ftXMHnrQjwKeibPhmeGrFj9xW9CXkInDp6IwPDxYbpunwVEIyRU/fWhb8dUGNEvFdzSJkvoIWqmv3XtWuDZ+XPCePpdvYNkyZMLefrEPz064+HRw/qk6rHL/mNwzZ5d9Zw+88GhA9jSu5s+qTu2Wf8PshYrIeRZk6D2qF1bBae0adH77GWTzb28fg3n5s/Bjc0bTJYxdyK29pV1X929g78b1Baye548j1TpMwh5tkpEhIVhbumiQnPdjp6GS5YsQh4nYghs2PkBg8aEmfzNyZ/7v78rnzIpMfWnNDEVEzAWcD4MW1vctmmPPuO9UKi9de8xO33v4um/oYZxlB/pgWK943ZvBd96h431bhraUotkKZkG2cq7IHOJNPCq4YZUGVOoFTPKuzwvAKfHPTXKj09G890Fkb5Aqvg0Eae6L19Fo2nPEERIn3Vh4cCTZ1Gq7XxawwljBqdGvlzqzwHVSokwc4Nva/ifPS3MrMuB43D19BTytJ44v2Aujk0aZ9Nh+m7bg4z5C6i2uXf4YFzfFLNGoCxEz75c1WpKz/vi8Krkg2wlSpp851DWNZWeV7YYPoTG/J40nDUfeWrXNVVc8/lRkRGY7S3ybbV6I9xLlY7T2Ol5fn3TBpyZNR0hT/3j1EbNsRPg3aZ9nOrastKalo3x4rKfockiLVuj9vhfDWl95ObWf7B78Jf6pO7Y9fAJpM3mLuRZmzg46jtcXhGzvuXdrgNqjrbs7ys6MhKzvPNb26XZ8gWbNEO9X6eZLeOoJ/ePHI6r61bbfPhleveDz9ARVrX7NiAAi6qWF+rUmfQbCjdrKeRx4j8Cl65F4puJYThxPmYdWc4md47kSCm9hqV2ToY9f7vCKaX8bNziyVhgEDdw8a1VZ2IPvI/4YGgmfRpXzOn+M9rPHGLIo8iaAb/DI734ov+XJFRYKBMqULmFPceioEduimousMAgYQUG918+QafZ4o917aKVULVQWYzZNMtwf7iny4xVX0xBiuTix93ni0bhyuOYj146f+DbRYZ6WoqsO70bU3cuEYZE4/2r1y/Im9VLyOeE4xBISvew2lWhZ0P7WUPx4nWgcFprgtaAwGgcPhWhupDXv3MqjJYWRpJqUFtk73nqAlKlS6+K5Nz82XjhF/OhFvzgnvDhRpXiKjDofvws0mTKpNqvJZlLavjE+UPYVPv9r99TPXVv325s69db9Zw1mabaV2sjoQUGNIaZhfMIQ/n80g2kcHYW8jjxHwH6OKrlG2KEo1trZ5BwMk/O/z6OjAokcMadja9weNAjm/Za6WdPFOmS2ao2bSkwoI5vrAjE8ZFPLB5D9uquICFFxsLmf/+Pf/sYN1YGWdyuJQWbbCmATMXM92tJO/EtE/o2GpeuR2LIWGkx8Y4oPChZNAV2L3OV3r3j24vj1t/6eQ/cP7BPmECb9Vt0C91CpsYTB374FldWr7DpKNtu2Ios3sVU2wwLDMTmbh1AQnVLQprMmVGqa0+U7tUHyVPEbdWIBQamSZMgZWPndkbvaqZrqJ+p9sPPKNGpq/rJBMy9sHghjo4bLfTY58I1pEwt/qZu69cL9/btMZTLWbUamixcakjHNRIfgcGbJ4+xtFbVuHatWi9fvU/R4M+EXcNRHYgdMrUkMFB7B288bxFyVa9ph5k7dpNh4dGo1DzESCmhUukU+GVYGhTOlxxpUtteWY8FBh/pvmk69QsEhb429E6LnIU98wgLtX1rt0NHn8aGMvrIhC3zsfXCQX1SdyTNU9JA1WJwBIHBtWvXcPq0qO2iZLl9+3b8/fffhuxGjRqhfXvzGgHe3t4oW7asoU5CRAJDgtFs2gChqwLuufDgpb8gpJrbfRSKZjeWxrecPlBYqCRt/R1DtffA3HvlX4zaMEOYJyVmdv0BJXIUMsrnDMchkFTuYXNX5H6AJPibIwr+SChMwmGthYf+UajXKQQkQJCHM/+4gTQdkmJQexk3txCgZPTg8EFs6SV+QMZVYND/2l0gWdxfIJWL25kLF0GRVm2VQ7Y47eTioqpNRx8Na1o1EbQZ9Y16lq+IDHnyIq27h074kUw2n2eXLuD6hnX6orqj1gUGf1Uph7CXLw1jtma8hkpJJNJ+QCj2HI0QZjvxmzTo2U5bApZrSwJx4idxYd27Z2akzR73cWb/xBUZClmnMW9rgQGBf3UjXJqbv7BzQbggKolqv+dAvuamd+nQrnDaHS4PFX6In4Z5gdYZ4JxOVIKRt5/Qcfq47zrkLfYdE+/f2b+4oHVDp4Qejmb62//dCFxdu0oYT+P5iyXt+BpCntYTO7/qh9s7twvDrDryRyFtbaJIi9aSYkE6k9Ui37/H2bkzcX7hPNVnpVpFr4qV8en0WUidwbrdStQWCwzUiAK0U2Fb316quy9JUONV0Ud6X3GHS9ZscEoj7no7PmWicO20IjAIffYUi6tXFib82Yy5yFu3viEv/FUQFlYqY0hTpM7EKSjcvJWQF5dEfAQGJERb1bSB0G3umrWRo8onQp41iYz58jvcb5Kl87u1bQuenDphaXGLy+WuUQvE3ZpAu7FpV7Y8tF6zCdlKlpJncVwiMHPpO/z4W7jAotVnTvhztItNdhIIDcsSLDCQwUjIaP/FY3Dp0Q2TXZKJouX9JiO57KNYX3jQ3xNw+u5lfVJ3PDhysVRWmwszjiAwEGCaSCxYsAC9evUynB03bhy+/fZbQ1pLEaXJK+XYmpetjSGfdVdm69LKulpcpFS7p2jwk9oNgU+BuG0rVYVhg0x/f3/07NnTBi2JTbi5uWHVqpgPri5duiBA2tZn6zBr1izkzp3b1s3G2p7yPlRWcPR7WDkftXSHWcPwMPCp4ZRzSifsHbHQkNZSZOmG9xg0OkwY0uIpLmhUO2kuilxathiHx/wk8Ph02gzkb9BIyDOVsKnA4Po9U91YlK/cpl7gs8aoP/VPi+paU0jZD9X1buuLMr0+R/rceUw2dW3dGuwbOUw4b80CvJp2kz1NEtFASVM0Wlpw0AXp3Y3NEf2HQu3/eT55LZgiIg3tPZKGdnKNvfI+2vcGe3veF6bQcH0+ZC3jIuTZO2EPgYF+zGEvIvD44Bv4HwnF0xOhePs0Zqe0voz82PJAIbjlVheYnJnwFH5zYt5ZnNImRwc/b3n1RBGnHQZVW70R5kI7Y8YOFbV2hQKJPOG3fAkOjRYX1muPmywJots41MyPT54gmc+bbRiztebwDBXjEImKiMCj40fx+N/jeHr+LPxPnzTbCj1La44Zb7aM2kkWGKhRgY795m4dhZMkKKj+42jkrVMfyZ1Mv/sqFQa0IjCgyWzq2kG6p44Z5qV83yMzNqQQIw89T100K+SSlzUXj4/A4N3rYCyoIC4w+wz7Vvf+aK5PPvfxCZCZNTK3Jg9dD/2rUxCS53Ec6DXiLTbuEt+7/Ha5wSOrfV+IWWDwke6+ydsWYvO5/SZ7J5MqpBWuFpS7EzKmTYfNXxtrWqvV/Rh5aou7WjOtYQkXRxIYtJ7+NZ69jtFelM+PdgxsHPgHUjsZa629DHmF5tNEu4T1i1fBD836yZv4qHEStJHATRl+bN4P9YpVUWZ/9PTly5dRvHhxu4xD7oImnaSR9OaN+FFqi05p5025cuVs0ZRVbSTme9hSEKM3zsLuyzEv7lRv17B5SOOsvYWGD9Lap2eFYGFqtCBCCyNJMdDH+4aOohZ+ic7dUO37URbh0JLAYPfQgbj5zybDuMk+MpmPsGV49/q19LFXUmiyaOt2qPXLRCFPLXFy2m84PfMP4ZTWBQbCYDlhksDTF1EoXl98rk3/OQ18m6ovQptsKAFOBN+W7P3XvSn0VHt+buSs4ybk2TthT4GBcuwhD9/D/3gobiwPRMBFUWBMZfM2SY/qf+RUVtOlb64KwrFvHgvnfC8WhbObdnYICIOLR6LtF6HCLgPyZbB8asIKkuIxfJtXJf8F5MdAHsguPtnHd6RwZc1KHPj+G2HIvU5fku7hhP2bpwFEvnunExzc278XF/5S5+i7dTcyFigojDe2BAsM1Akpd8mQsKjVqvXIVLCweoX/534Ie4t5pUXBqJYEBtfWr8W+b4cKc+h1xg/Orq66vNgECkJFKxPxERhQV8p7tXSP3qgy4jsrR8HFE5rAoZ9/gN/fSw3dunp4osvB44Y0R2II1O4QgotXY3wX0LswvRPbO7DAwN6ETbS/7tQuTN0V88chL9a2YgN8WU+UWuvPh74LQ4Nf++iTumPZ3N6Y1skyTfct5w9g5b/i9kl5Y7/6DjPymSA/H5c4CwziQi1+dYavmoLjt86rNjK5/VBUzi9K4fUFD147je/XTdMndUdTprGEQv9PTJIEYRcfXFc7hQwubiDn3PEJt549QC/JobPcYTi1Rw6dybGzFgMLDOJ2VRLrPWwNjR/WT8eBq6LW2Pqv/tCsM2/SopTba07Kfgzeh4RgfjlRUGjNS7CWBAanZ0zDyT9+N9y69tCi9D9zChs6iNqllmqtkfM9csInDywwkNNw3Pjlm5Go0TZEmMCOJZKN/BLaW1SOfBeNZUUuC2OtMsELBdtlFPLsndjV8S78j4UauikzxB0lB2Q1pO0SiQbu/hOMQwMfCs2nzpwS7U4XEfL0CXLMTMINeWi2s4Bkgkl7AnH5GOMS/2FKOGYte2eoWqxgChxc/d8CnCEzCUXI9jst7imDLRynKtu0Z/rxyX+xqXN7oYv2W3bGumgsVLBD4m3AC+we9CVofPIQF9MxykXYxOj0uPmy1cheoaIcVaxx5S4BS529Bt26iRWN6gnta0lgoKapX++36SjYqAlCnz/D4mqVhLE3nDVPcoItzkcoYEUivgIDUtKR77Qp1LQF6k6OeXe1YihcNAEJkCkpuV8WS5WFEnCImulKueN21NepMaCr/RXzWGDwkW4BMjNB5iaUgXYLrB0wFWR6Qi3s8jsmOK6lMl/U9UX7Sg3VihvlTd+zHKtP7DDK12cs6DkGhTzy6JM2ObLAwCYYrWpk/ek9+H3nYqM61QuXxy+tBxrl6zPGbp6NnZeO6pO646Le45A/m7qGmFBQSnSZ+w3uvniszNal4+s8mf5mus0bKfhhoIb71GyDzlWbqvaphUwWGMTtKiTGe9haEm1nDIb/qxeGavH9GzI0ZKdIx6/fYufBmK2Svds7Y/wI+2s+2Gk68W5WbSG76aLlyOFTNda2tSQwoMV4mos8dNp7GOlyWPZckNczFSftItIy0od0OXOh055D+qTJI2lVLqlVRfAHQIWtERgEP7iP5fVqCH3Yen5C45ywmICawODiDjdkd7fv9muLB6gouL7GDbx58N6Qm69ZBlSbmsOQTojIkcGPcHvDK0NXhTtlQuUx2Q1pe0YuzXiBs78+E7ogM0NkbkgZyJzRGh9RwSQ2vwfKNhwlPXv5O3z/a7hhuPlzJ8eJjQmvhW4YgAYiyp1rNCSfYd9IJkT6amB0lg0h5Kk/ltTwEQrTAiUtVH7sQEoLi6tXEmzll+v7BSoNMl57MDdW5cK4VuZnbsyxnVPOqf7vf6JAw8axVYs5Hx2NmUXyxqSlmH5RXchUSVxesRy0MC4PWhIY0Lh2DvwCt3dsNQxRv/tHaUqMlEd6HD+LFKlss2AZX4GBsj4p6XTcfRApnLW3I9EA14pI8P17WN1C3axpoabNUWPUL1a0po2iasLjxPAbYy+6SoHBvAkuaPGp+pqxLcfAAgNb0rSyrca/9UNwmKg59XPLAahdVJTeypvtt+hn+D2+Jc/Cyv5T4JUxm5BnKsECA1NkYs93JJNEL14HgpwXK8OWQTORXtL0VwvhH96j0W99hQV5Mn1CJlAsDfYSGJB5pa5zRyL03VthKL6VG6F/HVG7RyiggURkZCT8/PwQFRVl09GkkZxoFSkSo7l3/fp1vH0r8rFFhyVKlEDKlClt0ZRVbSS2e9iqyUuFbz9/qBOQyevlkwR3iyUBnlYDOXfcuo8FBvrr8+DQAWzp3U2f1B09y5ZHs2UrkTyF+b8pLQkMAm/ewMrG9YV5FG7RCnUmTBHy4pO4sHghjo4bbWiCbAF3P3bGkDYVUX7A6stZIzCICAvD3NJF9VV1xxYr1oKuFYePS0BNYJAQ9lrjOutDXz3UadrL6zfdXgAZiySc1vyFP57j/O/PDUNwr5AWDVaLi1uGkzaOPD7wBnu6i34cfM9LZobSG+8IiZZeiVaUvCItaMa8G7nlckaz3QWlBZ5kNh7Zx21u/sr3+GZijMkmFhgAD48cxj89OwsXhgTF7f7ZITmJdRHytZqIlt7r55cvISzK0xx8t+3RxCLl2tbN8PzSBQO+Ul17wFqnzGQ6ikxI6UPlwcNR9vP++qRDHpWa6BW/GoTyXxh/M5ucnIrAoM6k31C4WUuTVegEvWssrfOJkYKD1gQGd/fuxvb+vYW59DhxDlt6dRPup2K+HW26SK1c8Pdu1wE1R1v+zXNl1d848ONIYdzVR41Fcd9OQp6jJl7ekBw7N2mgOnylrwnVQhrMVNulRcpC9DvKwZiAUmCwYJILmtVjgYExKRM597e/xoH+DwxnXTyc0OZ4YUNai5FpkkmitZJpInloWKo6vm0s/kjrz5M5oYlbF+iTuqN7usxY++VUIc9cggUG5uiYP+dIAgOaSafZI3D/5RNhUuZ8R6iZP2laphaGNewhtGEuYQ+BQWBosG7hNCj0tdB1M8lx81ATjpuFgpxwWAKJ4R4+fP0MUjk5o0K+4kgm/WdJIOFd+5lDQD5F5KFx6RoY0aiXPEtTcRYYiJcjSnJqu65Nc7y47CecyFunnk4bLWVq04uIWhIY0ODJIRk5JpOH1us2I1tx0e+A/LwyThqPL674watiZeUpqM23464DZp0dk9+DJTV9hMUafcPWCAyojlLjsMKXX6PCgK/1zdn0eHjsKLx9EbNziBon+8CW+Guw6UAcoDFHExgE35L8GNS7KZAlHwa15+WGhT//urovL4XBxd0JabKZFywKHf0/cXv9KxwZ8kg41WxXQWQoaL0WaNjzCKvGcGmmtMNgcswOg9i+xW6tCcLR4Y+FsVb4wRPePTILeeYS0ZHRkgPmt8hW3kWzggYWGBhfQVPPRxLUNpyzQHKimt64kjxHWrS9vXMbgm7fsm6xV96GDeLX1q3BvpGi1j4tytPivKWBWPifOgkPae6mtKHJVEzKVKkt1uZWE4RX+nooyvUbYOmwdOWUz37P8hXRYvlqq9rQWmGy0U+2+vWBFBS6HjqB5FYoRymFMUVatkbt8b/qm1Q9nps/B8cnjzc6pzWBAe3cXOhTVni3IpNL5+bNEsYeF1NOQgOKRHwFBjRuMvf0+mHMeiBd2467Dhp8MCi6VE2GPHmCd29eI3PhGKU81YIJnJkYBQaHx/yES8sWG0jaw0eaofFEEGGBQTwvoiMKDGghtNlU4wc3LYLSYqg83Hx2Hz3mfy/P0sXNLQAbFZYyWGCgRsWyPEcTGNBC5ci1ojCJTJrM7vYTinjmFSZtyvzL+i+nIWu6TEJZcwlbCwzehIei+7zvjBw4k3NjcnLMIXETSAz38MBl43H2/hWkT+OKFuXrobn0257ZNYPJC3fkxllM3bnE6J6nCr93+Abl8xrb/TXZWAKfYIGBMfDnFy9gbZtmRido0fyzmfNUnSNGhIfj1PSpODd/tlCvy/5jcM1u3rSI2q4GaxfPhU7/n1CzXUunSPuraJv2SJY8uVo1XV7gzeu4vPJv3UeBqZ0D9IFGpoXkgRYmmv61THUBhdrcMaAvXt0TbaDr61s753XtWuDZ+XP66rpjy5Xr4FHG9g7flcIJfafWjllfLzEfHU1gQNfizMRn8JstCoSyf+IKn/HZ4ZrD2eTligiLwv0dr3Ft0UudA+Gqk7xQoI31/g/e3H+P9TVvCP3QDoc6C3IjbXbLNdH0JoM8q6RF4U6ZkUMSfJjT/Cchx5amt4V+8zRKjxp/5hTy5Ala7N/W8o6Rw2TvnplRZrA7UrqY/l0JexGBW2uDcGXBS4S/jECL/YWQLo9pvvJ+EzrOAgN14s/9LmJtK2OTorRQ12TBErhkVd89TwtnR8aM0tnoz/VJdTSWyn6sEC3tIl7XrqWgeU1jKdWtJyoOHAwnl7Qmh0a+Bmjh+sKi+Tqt84679ktCcvH7TF+ZFlNvbN6IEh27gGx8p8+dR3/K6Eg7H/YMHWjk26f12k3IVqKUUXlzGSen/YbTM/8QilT/aQyKte9o9rkvVNBYgpQfSBAiDwWbNEOtsRNhTpFDXp402UmjXR4az1uEXNVryrN0cRIInZ4xXfo3zegcZWhNYEBjUi7eU5480Ltct8MnkSyF8e4xeTlr4so+rd1hQH3dP7APWz/vIXRL2uokzDHnp4L+Zh7/e0znfPfO7p263SK0a0RLIbEJDCLfv8fCymUEwVStcZNQtFVbLWHX1FiylAkWxuOwOwwe7n2je3ETZvP/xDPJwZXcriZlV5nopVZUl+dV3RWknWJJcESBAc2LFobWnd5tNMWK+UqgkaRNSmY5Tt65hDP3rhg5eqXdBWu+/N1irVXqxJ4CgxGrf8Oxm+IHt9HEYsmoWbQixrT8MpZSH+e0owkMiBL5ySDb/8rQsnxdFPMqiGfBAdh/7SRuPr2vLIIm0u6C4VbsLqAGbC0w2HxuPyZLjpRtESrlL4lf24taQLZol9uwLwFHv4f1AgM5JRIYZM+QDbkye8IjQxaEhofhUdBT3d8hmd9SC60q1MfX9cXt+2rlPmZez+FvsWl3jEmito2cMHOsY5gWsCe3k9OmSB/c01W7IMGBR9lyyFLUGxGSdtTrBw/gt2Kp0ZZ1qvwxBQbU/4W/5uPohLEUFQJphOat9yky5suv82tAmllka/XV3Tt4cvKEYM7AlMAAkrboqmafCY7PqBP60KNFlyxFikraf046bVIysXBm9gxhDMqEtYvvfiuW4dAoY6UMr8pVkKlAQd3CVfIUMYuXWYuVQI4qnyi7tSjNAgOLMOkKnTgfiUbdRdOdWjZJRIP+EBKlW7CnRWxl8O6VBZmKpka6vM46u/4hjz7g9d33eHUzHPe2BEsfzlGGKnEVGFAD/37/BNeXBxra0keylnExWlTPWS8dcn+WTl/EcNQLDPQZ5IeAHDinLyiNP7ezJPxwApkVCvX/gLubg3FjhXF/1f/IibxN0uubUD0GXAjD1uaioIEK0vdfIV+pvwKpJF7S7gipr9f3pd/IO+8ReCUM9N0nD1oWGPy15j2GjYsxSZQlUzJc22vMXD6fpBIn4fipP0XlJv3c3UuX0ZmGo9/b92/eIOD6FbyQTHzKzex8bIEBjdWUYgDZUPdu2x4Z8xdA+jz5pHs4CsEP6Nl4FwFXL0s7JLbrp6o7xiYwIPv3+pCzajXQ84kEB/QvTcaMuveGgKtXcHbuTCNhOj1LO0n23JEsmb4Ji47kjJSckipDRum56FG6LNwkJQb5rohUGTLCW1Ii0HKgBfyVDesZMSKb/J6SkkCazFmE4Zfu1QeZC4na5vf27cG2fsY7fot36IyCjZsirbuHtJPwOV5eu4YbWzYJzniFxqWEFgUG9O62sXM75VANaTJLReaprAlRERE6oVc0PThUAt3f8r9t0jYv3rGLSkm6jZOjkCTkSe5kvE5IAgMSHCgD+Rah9216VyVhZOizpwi+J/093rsDMsMk35lA5qVYYKAkaNv0vX27pb+h3kKjvc9dNitkFQonsUREJOBRXhQYLJ7igka1jf8GbI3G5j4MNtS+Kb38vrPJOGvMyIk8Dc2/aOo7clSBQURUpLRz4DuTjmL181MeSVN8ed9JFvsu0Ne3p8Cg/+IxuPRI1GrS92vpsVyeYpja8RtLiydoObIRv23bNkOfNWvWRJkyZQxpLUaeSgKBjrOHC34JLBlnzkweWNxnPJxisbOtbEvLAoPiXgUwS9pdwcGxCDj6PawmMLD2CuTOnF36exwH+t3XcvhhSjhmLYt5/tesnBJrZ5nWrtPyXGw6Nmkx/Ihkn//ikr/i3Cx9nLdauV51R4K8UXvtMKA+oj58wLa+PfHgyCF5l1bFTQoMpFZMLUzE1gEJLOQ2lqm8tQID+pBdKW1lN7VjQTkGS8wPKOvo0yww0JOI/Ug+UWjnkjzcOpgOGdJZt+glr58Q8ccHQ7Cn2714dRUfgYFysd/cQEiIUeE7D6Mi1rRhVFnKKNxRcrY81vyOKH09pd8Ffb41Ry0LDLYf+IDOg8T7+NmZ9NIz3ZoZJt6yJIgmgXRcghYEBjRu0h4/+cfvcZmCoY41AgNDJQsj8dkxp9T8NteluWe8uXoJfc7Ugr/aOBrOmoc8tesZnVJz3G1USJFBQqRIyexo2MsY5SAtCgxo58yiahWFccqn0m7zDqtN9pAAZdEnFeXNxCve9fAJpM3mbtTGm8ePsKFDG5BT8rgGFhjElZzl9ZTOtUt26Y5PvuN1GlMEAwKjUaSOqCixY4krypew/9oACwxMXZUEzA8MCcaApWNVNcHVhuEsadlN8R2O0rlEabdaWWUeCwyURBJ/moQ4Q1ZMRtj7cIsmmyOjO6Z3/g5Z3DJaVF5eiAUGchoctxUBR76H4yswqONdGV/V74RMaS0TntuKeVzaIWEBCQ30gbQoL+5IB2f7Kz/ou9TskbY7k8Dg6PgxVo/RZ9i3OvMGltjXtafAgAZOmnlHx4/FpaWLrJ4HVdBpOUoOzUwF0jCjxQlLQ6nuvZBD0rJUbkG3VmBA/QVcuYxdgwZYJDRggYGlVyh+5SbNeYdJs2N+U1zTJsO9I46hmU0mesgBsNpOA0uo1JguKU01jvvvfvCddzg88BFe+sVotqv1aw+BgVdNN9Sak8usCSPlWMi80NFhj5XZFqdbHS5k1uSTxQ3ZoeD5K5Go21HcKXN4jSuKFrD/h74dpmP7JiWhOtmxPjx2lNVtkwkYMgWjhUDmhcg+flxD531H4OaVQ7W6NYv28gZIa77upN+Rt259ebZV8fCgQOyRTPjQ+0VswVEEBjQP0kLfNfhLwSSK2vxMCQzCXwWBHCgH3bqpVs0oj4QFjeb+pbtH5L6ttCgwoMH/O2WitFtlltE8SIHFd6uxdQyjgoqMhBIYULckkNnxVT+zOzsUwxOS5CiZHCZrKSQmk0RqZk7bb9mFTAULaQm5psZy+KRkevHzUGFMF7a7wcvD/poHNhcYbP7sFoKuxbzcC7OyMkFOwnLWdbOoFplC2tcrxqyKWy5ntDzoODddpLTTYM7+NZJ5ol1mtcGrFCwjOb3sGefFo7kH1mDp0c0mmS7pMwF5s3qZPG/uxNfLJ0imky6bKxLrOZ8CpTGp3ZBYy3EB6wiQw+DJ2xeCbMKbCiSIalmuHj6v3RYp46jJ3Gvhj7jur25TmtrfO2Khqe5V83dcOoJfNs9RPWdtppZ3r1g7l6RY3lHvYTIxRKbajt+SzKhIv4/vIz5YdPnILB0JCmh3gaOEzXs+oMcwUYty7NDU+LxDKmt3wTvKlK0e55snj3XmAsgW8YdQ8cVP2Vj+Tz+Dz/CROjM/ynOm0o+OH8Xmbh0Np2mxoPfZ+D2XDY3JIrQbgDQqlSYVZEUMUVpAKNS4GfJIzp49y1WI1bFg4M0bktDge7MfevTB6jNkuE7rz5ZzJv8Rd/fsknZRHMSzc2cRKmnEqV2nYr4dUWPUL4Y5WhNZVre6sPWd6trrOlkzLq2VfegfhWptQhASGm0YmqPtWooMj8LN1UG4NCsApLEfWyBfB7kapAM5SrbUJKu5NiPfRePmqkAEnA/DC+mf2g7wEv2zouwwYy1N8i9AOyX8j4Xg0b4Q1brKvj0qp0XpQdngXjFuO8vIL4Hf3ADclMwbyc0zKfvRp/M1y4Bcn6ZD9mqucHK1/0ezvl9rj88ColGsnqgZ2Ly+E2aMcUEqZ2tbS7zlyUQImZsjG/Nqv7vymdPOMu/2HZCvfgM4pdGO6UPyS0DOba+sXhHrHGg+ZDs/n2TSL2fV6mYds5K5FFqwpx1+pB0fW6BnSplefVGiU5fYHUjH1tj/zz86dgT3D+7Hk1MndNrbci15fROxKQXoy2nlSAuXV9esBC3g0z81rfTG8xcjV7UaqkOm3Ykk7IpNGcS7rS98hn2juxYbfFsLuyJrjhkvma7yVW3/Y2YGXLuK1ZKpSGWgedC9ZW0gwdPCymWtrWayfPfjZ5EmUyaT58nU5b39e3FmzgwjH1Vqlch3Sv4GjZBXelfVmsNjGm/w/btYXr+W2tBRuEUr1JkwRfWcFjPp7+XCogWGoTna+A0DT6AIvQd3HvwWJDSQB/9T6eGUUp5jn7jNBQb2GWbSaZVMFJ24fRF3XjzS2ZePkLaEZZU0vbNnzIaqkrAgneQ4kwMTiCsBciJ8VFq8fBz0XOcfI2WKFCBfGHmz5kDlAqXiLCiI63i4HhOwloCj38N3XzyG/yvJrmnIKwTQvzdBkn+aKOk3PityZvJEjkzuoF0+aZxTW4vmo5d//DQKpT57YzSOYgVToGr5FMiWJbnOlAhpVVYqnbQ1K+kj86m0IP36wX3QAgNpqpFNVbKXT4vhbp6SoMhKW8NG4BMgIyIsDE/Pn9XZgQ2TPgbfvQ6WPojTwdVDcvDq4YG0kkZdhjx5rXeOKH3okXkg3b87t3UL92kyZtIxIru2WvyYSwDcibaLoOBonf+TcGmB+8VL6SP/UZTgD0U/8WF9UmFEP8f7baTxkzPiF+feIjwgAuFBkTr7/y7ZUsLF00n6O3HS+TVwTq/d30USeATffgda1H/7XJqDNA9apCdHzuRM2dVL+pfTNqvfJKwIvBKOwKvheBcYgXevIiVb1cmQVmJFghQXdyekz++MFKm1KyTQ37N0lB7xkvDrDa7fkSKyQLvwGkv2h92zJkfmDMmQMX0ytPiUt+TRTjbyC0C2/sNevkBYYKBuMd3V00v3XCGb/aY08WV4P2qUTLoEXLsi/buK8EDJMferYGnHjfS37u7537NRMqWSQbKlbqmTXflkyDxgwPWrCH36VLKT/0L3fIyUfCDRM9c1u5fu/SF9njxsC1wOzc5xevcJun1Ld8/Swm609A7jKvkxcPX01PmaMOf82s5D4+YlAvQb8vTsaZ1AKDwoCO9DQ+CSJYv0N5Nd528iXY6cumvFsOxPgATDi6tXFjrqcvC4dC08hbyknFix+T3eSptDXwZF4cmzaGyU/APKlWeITUIq0LDAICnfjTx3JsAEmAATYAI2JDBxVjgmz43xY6DWtG9TZ0z/OY3aKc5jAkwgCRI4eSESDbuJJluUGGhx9d8Nbpr3X6AcN6eZABE4eCICrfqa31XGzpD5XmECTIAJMIHETODILz8LPt0qfjUI5b8YmJinbPXcspQRnRurNXBwtStIIS8hAgsMEoIy98EEmAATYAJMIAkQCH0bjf4/hIGclZoKLDAwRYbzmUDSJBCbwIB8F/w12QW1fBJg73XSvAQ86wQgEJtAnQUGCXARuAsmwASYABP4KATI5NeSGj6GvslkaSfJrxnvwDEg0UViExj8NDA1vuyWSqxkxxQLDOwIl5tmAkyACTABJpAUCZDphVVb3sPveiSu3Y7C65Bow3bKbq2d8et3vMMgKd4XPGcmoEbgwtVI1OkQs8OAFk5zeiZH4XwpUL1SStSvlpJ3FqiB4zyHI/AyKBp/b3qPs36RuHIrEuTfQG9qIHeO5Djzj2W++xxu4jxgJsAEmAATSNIEyGfIzS0xvlTdS5aCZ/mKSZqJ2uTlAgNSmPFyT4Yi+VOgfMkUaFjLCbm9EtYcIwsM1K4S5zEBJsAEmAATYAJMgAkwASbABJgAE2ACTIAJMAEmwASYABNIYgRYYJDELjhPlwkwASbABJgAE2ACTIAJMAEmwASYABNgAkyACTABJsAEmIAaARYYqFHhPCbABJgAE2ACTIAJMAEmwASYABNgAkyACTABJsAEmAATYAJJjAALDJLYBefpMgEmwASYABNgAkyACTABJsAEmAATYAJMgAkwASbABJgAE1AjwAIDNSqcxwSYABNgAkyACTABJsAEmAATYAJMgAkwASbABJgAE2ACTCCJEWCBQRK74DxdJsAEmAATYAJMgAkwASbABJgAE2ACTIAJMAEmwASYABNgAmoEWGCgRoXzmAATYAJMgAkwASbABJgAE2ACTIAJMAEmwASYABNgAkyACSQxAiwwSGIXnKfLBJgAE2ACTIAJMAEmwASYABNgAkyACTABJsAEmAATYAJMQI0ACwzUqHAeE2ACTIAJMAEmwASYABNgAkyACTABJsAEmAATYAJMgAkwgSRGgAUGSeyC83SZABNgAkyACTABJsAEmAATYAJMgAkwASbABJgAE2ACTIAJqBFggYEaFc5jAkyACTABJsAEmAATYAJMgAkwASbABJgAE2ACTIAJMAEmkMQIsMAgiV1wni4TYAJMgAkwASbABJgAE2ACTIAJMAEmwASYABNgAkyACTABNQIsMFCjwnlMgAkwASbABJgAE2ACTIAJMAEmwASYABNgAkyACTABJsAEkhgBFhgksQvO02UCTIAJMAEmwASYABNgAkyACTABJsAEmAATYAJMgAkwASagRoAFBmpUOI8JMAEmwASYABNgAkyACTABJsAEmAATYAJMgAkwASbABJhAEiPwPyt6VpN4HqwpAAAAAElFTkSuQmCC;" vertex="1" parent="1">
          <mxGeometry width="1548" height="66" as="geometry" />
        </mxCell>
        <mxCell id="BYhc7Ps8Rw60LZGLpF5L-2" value="" style="strokeWidth=2;html=1;shape=mxgraph.flowchart.annotation_2;align=left;labelPosition=right;pointerEvents=1;rotation=-90;" vertex="1" parent="1">
          <mxGeometry x="265" y="-125" width="50" height="410" as="geometry" />
        </mxCell>
        <mxCell id="BYhc7Ps8Rw60LZGLpF5L-3" value="&lt;font style=&quot;font-size: 32px;&quot;&gt;Bool&lt;/font&gt;" style="text;html=1;strokeColor=none;fillColor=none;align=center;verticalAlign=middle;whiteSpace=wrap;rounded=0;" vertex="1" parent="1">
          <mxGeometry x="260" y="110" width="60" height="30" as="geometry" />
        </mxCell>
        <mxCell id="BYhc7Ps8Rw60LZGLpF5L-4" value="" style="strokeWidth=2;html=1;shape=mxgraph.flowchart.annotation_2;align=left;labelPosition=right;pointerEvents=1;rotation=-90;" vertex="1" parent="1">
          <mxGeometry x="642.5" y="-67.5" width="50" height="295" as="geometry" />
        </mxCell>
        <mxCell id="BYhc7Ps8Rw60LZGLpF5L-5" value="&lt;font style=&quot;font-size: 32px;&quot;&gt;String&lt;/font&gt;" style="text;html=1;strokeColor=none;fillColor=none;align=center;verticalAlign=middle;whiteSpace=wrap;rounded=0;" vertex="1" parent="1">
          <mxGeometry x="606.25" y="110" width="122.5" height="30" as="geometry" />
        </mxCell>
        <mxCell id="BYhc7Ps8Rw60LZGLpF5L-7" value="" style="strokeWidth=2;html=1;shape=mxgraph.flowchart.annotation_2;align=left;labelPosition=right;pointerEvents=1;rotation=-90;" vertex="1" parent="1">
          <mxGeometry x="1224.38" y="-191.87" width="50" height="543.75" as="geometry" />
        </mxCell>
        <mxCell id="BYhc7Ps8Rw60LZGLpF5L-8" value="&lt;font style=&quot;font-size: 32px;&quot;&gt;String&lt;/font&gt;" style="text;html=1;strokeColor=none;fillColor=none;align=center;verticalAlign=middle;whiteSpace=wrap;rounded=0;" vertex="1" parent="1">
          <mxGeometry x="1190" y="110" width="122.5" height="30" as="geometry" />
        </mxCell>
        <mxCell id="BYhc7Ps8Rw60LZGLpF5L-9" value="" style="strokeWidth=2;html=1;shape=mxgraph.flowchart.annotation_2;align=left;labelPosition=right;pointerEvents=1;rotation=-90;" vertex="1" parent="1">
          <mxGeometry x="741.25" y="-581.25" width="50" height="1510" as="geometry" />
        </mxCell>
        <mxCell id="BYhc7Ps8Rw60LZGLpF5L-10" value="&lt;font style=&quot;font-size: 32px;&quot;&gt;String&lt;/font&gt;" style="text;html=1;strokeColor=none;fillColor=none;align=center;verticalAlign=middle;whiteSpace=wrap;rounded=0;" vertex="1" parent="1">
          <mxGeometry x="705" y="210" width="122.5" height="30" as="geometry" />
        </mxCell>
      </root>
    </mxGraphModel>
  </diagram>
</mxfile>
